<svg xmlns="http://www.w3.org/2000/svg" viewBox="0 0 398.994 399">
  <path fill="#7bad76" d="M192.56 0h13.87c24.55 1.14 48.97 6.25 71.55 16.04 33.34 14.23 62.59 37.8 83.7 67.27 18.58 25.83 30.83 56.18 35.29 87.69 5.03 35.03.66 71.4-12.82 104.14-12.3 30.1-32.16 57.04-57.17 77.82-24.96 20.79-55.07 35.36-86.9 41.9-11.07 2.39-22.36 3.41-33.64 4.14h-16.76c-2.21-.28-4.42-.55-6.64-.73-35.29-2.71-69.71-15.32-98.57-35.76-28.16-19.87-51.05-47.14-65.66-78.35C7.43 260.17 1.38 233.88 0 207.41v-15.82c1.49-29.69 9.08-59.16 23.14-85.41 18.91-35.78 48.97-65.53 84.95-84.04C134.14 8.56 163.25 1.28 192.56 0M42.88 120.97c2.13 4.11 5.19 7.63 7.62 11.56 3.32 5.21 8.09 9.25 11.98 14.01 8.34 9.38 20.17 14.73 32.07 18.03 11.33 4.19 22.92 7.59 34.29 11.65 6.62 2.68 13.63 4.45 19.84 8.09 6 3.03 10.67 8.01 14.69 13.3 5.24 7.34 7.81 16.04 11.01 24.35 7.7-3.6 14.49-9 22.46-12.14 6.95-3.48 14.29-6.1 21.15-9.76-6.83-7.86-14.81-14.59-22.91-21.09-10.75-7.38-20.85-15.76-29.96-25.1-4.09-3.95-6.61-9.29-11.12-12.84-4.65-4.08-10.97-5.28-16.9-6.21-17.42-1.66-35.06-1.32-52.29-4.73-11.68-3.1-23.42-6.01-35.16-8.88-2.2-.67-4.52-.48-6.77-.24m291.91 7.86c-2.72 3.58-6.13 6.52-9.06 9.9-5.56 6.59-12.79 11.48-20.16 15.83-26.6 17.21-53.49 34.21-82.18 47.76-7.89 3.25-15.4 7.3-23.03 11.09-16.3 7.7-31.23 17.87-46.34 27.62-14.17 10.7-29.27 20.48-41.14 33.86-2.08 2.09.61 4.58 1.93 6.26 7.61 7.76 20.41 9.41 30.1 4.82 9.52-3.43 14.97-13.07 24.27-16.85 9.32-2.81 19.25-3.05 28.83-1.62 10.36.73 20.55 3.03 30.94 3.31 8.61-.07 17.79.98 25.73-3.11 9.23-4.31 14.7-13.41 22.88-19.14 1.94-1.5 4.16-2.76 6.66-2.94 8.87-.67 17.95-1.92 26.71.32-.46-2.29.58-5.59-2.05-6.8-6.05-3.24-13.14-3.71-19.27-6.75-3.09-1.46-4.67-4.76-7.51-6.53-7.85-3-16.21-.5-24.32-1.02 2.31-3.62 4.85-7.12 8-10.06 9.12-8.21 19.37-15.08 30.06-21.07 8.11-5.27 17.53-7.93 26.87-10.04 5.9-1.93 12.49-4.69 15.37-10.62 2.99-5.68 5.39-11.78 6.37-18.15.26-6.31-.02-12.63.12-18.94.19-4.89-1.39-9.67-3.75-13.9-2.32 1.97-4.19 4.37-6.03 6.77z"/>
  <g fill="#fff">
    <path d="M42.88 120.97c2.25-.24 4.57-.43 6.77.24 11.74 2.87 23.48 5.78 35.16 8.88 17.23 3.41 34.87 3.07 52.29 4.73 5.93.93 12.25 2.13 16.9 6.21 4.51 3.55 7.03 8.89 11.12 12.84 9.11 9.34 19.21 17.72 29.96 25.1 8.1 6.5 16.08 13.23 22.91 21.09-6.86 3.66-14.2 6.28-21.15 9.76-7.97 3.14-14.76 8.54-22.46 12.14-3.2-8.31-5.77-17.01-11.01-24.35-4.02-5.29-8.69-10.27-14.69-13.3-6.21-3.64-13.22-5.41-19.84-8.09-11.37-4.06-22.96-7.46-34.29-11.65-11.9-3.3-23.73-8.65-32.07-18.03-3.89-4.76-8.66-8.8-11.98-14.01-2.43-3.93-5.49-7.45-7.62-11.56z"/>
    <path d="M334.79 128.83c1.84-2.4 3.71-4.8 6.03-6.77 2.36 4.23 3.94 9.01 3.75 13.9-.14 6.31.14 12.63-.12 18.94-.98 6.37-3.38 12.47-6.37 18.15-2.88 5.93-9.47 8.69-15.37 10.62-9.34 2.11-18.76 4.77-26.87 10.04-10.69 5.99-20.94 12.86-30.06 21.07-3.15 2.94-5.69 6.44-8 10.06 8.11.52 16.47-1.98 24.32 1.02 2.84 1.77 4.42 5.07 7.51 6.53 6.13 3.04 13.22 3.51 19.27 6.75 2.63 1.21 1.59 4.51 2.05 6.8-8.76-2.24-17.84-.99-26.71-.32-2.5.18-4.72 1.44-6.66 2.94-8.18 5.73-13.65 14.83-22.88 19.14-7.94 4.09-17.12 3.04-25.73 3.11-10.39-.28-20.58-2.58-30.94-3.31-9.58-1.43-19.51-1.19-28.83 1.62-9.3 3.78-14.75 13.42-24.27 16.85-9.69 4.59-22.49 2.94-30.1-4.82-1.32-1.68-4.01-4.17-1.93-6.26 11.87-13.38 26.97-23.16 41.14-33.86 15.11-9.75 30.04-19.92 46.34-27.62 7.63-3.79 15.14-7.84 23.03-11.09 28.69-13.55 55.58-30.55 82.18-47.76 7.37-4.35 14.6-9.24 20.16-15.83 2.93-3.38 6.34-6.32 9.06-9.9z"/>
  </g>
</svg>
